#!OML:ASF F:\VICON\USERDATA\INSTALL\Justin_Nancy\Justin_Nancy.ASF
:FULLY-SPECIFIED
:DEGREES
144
root -0.983842 17.4382 26.56 -5.28577 1.28776 -0.7392
lowerback 10.2903 0.0156662 1.93542
upperback -0.0135934 0.391744 2.32574
thorax -5.79854 0.171488 1.28545
lowerneck -19.1329 -3.99766 -9.73193
upperneck 18.36 -4.20677 6.78691
head 9.29318 -1.90869 3.37918
rclavicle -4.09993e-015 2.46493e-014
rhumerus -36.0069 -6.54425 -78.3941
rradius 52.3992
rwrist 1.0863
rhand -14.1016 16.4154
rfingers 7.12502
rthumb 12.0311 -13.2188
lclavicle -4.09993e-015 2.46493e-014
lhumerus -37.3873 23.2983 78.5501
lradius 29.2283
lwrist -1.34471
lhand -22.4011 21.8106
lfingers 7.12502
lthumb 4.02141 51.7524
rfemur -16.0591 4.84658 22.4663
rtibia 36.1016
rfoot -3.39951 -2.53305
rtoes -2.02478
lfemur -21.6129 -1.36717 -19.2255
ltibia 42.5352
lfoot -10.1715 5.80555
ltoes -7.6084
145
root -0.968165 17.4578 26.6864 -5.14791 1.11249 -0.73104
lowerback 9.95601 -0.0123087 2.01206
upperback 0.0927061 0.345951 2.29297
thorax -5.49724 0.147731 1.21281
lowerneck -19.0076 -3.8496 -9.6919
upperneck 18.3624 -4.0337 6.82292
head 9.25518 -1.82344 3.41053
rclavicle 8.60986e-015 -8.74653e-015
rhumerus -35.6065 -5.80762 -78.8538
rradius 53.2171
rwrist 1.9299
rhand -13.2371 16.1494
rfingers 7.12502
rthumb 12.8646 -13.4342
lclavicle 8.60986e-015 -8.74653e-015
lhumerus -38.0442 24.6537 77.3141
lradius 27.7472
lwrist -1.75913
lhand -22.9075 21.0647
lfingers 7.12502
lthumb 3.5324 51.0152
rfemur -15.7506 4.82629 22.4828
rtibia 36.1622
rfoot -3.65668 -2.61091
rtoes -0.798238
lfemur -21.5279 -1.79086 -19.1317
ltibia 41.11
lfoot -8.4285 5.75245
ltoes -9.57299
146
root -0.948775 17.4713 26.8005 -4.98489 1.04207 -0.572338
lowerback 10.0795 -0.0855931 1.95299
upperback -0.0703581 0.248313 2.24446
thorax -5.73771 0.099328 1.2114
lowerneck -18.9116 -3.72113 -9.6196
upperneck 18.6388 -3.8639 6.67503
head 9.3136 -1.75947 3.37497
rclavicle 8.7838e-015 7.95139e-016
rhumerus -35.4002 -4.99055 -79.2173
rradius 53.8631
rwrist 2.70289
rhand -12.5381 16.0592
rfingers 7.12502
rthumb 13.5384 -13.4807
lclavicle 8.7838e-015 7.95139e-016
lhumerus -39.2095 25.6259 76.0494
lradius 26.6188
lwrist -1.84343
lhand -23.0772 20.9024
lfingers 7.12502
lthumb 3.36851 50.8555
rfemur -15.4878 4.55656 22.3088
rtibia 36.2219
rfoot -3.86727 -2.53135
rtoes -0.403583
lfemur -21.5512 -2.3616 -19.204
ltibia 39.8394
lfoot -6.69106 5.36101
ltoes -10.7862
147
root -0.927105 17.4826 26.9214 -4.9163 0.848881 -0.550829
lowerback 10.1377 -0.144389 2.08265
upperback -0.169906 0.187736 2.19692
thorax -5.8745 0.0642536 1.09877
lowerneck -18.7931 -3.62721 -9.51799
upperneck 18.8549 -3.75401 6.54554
head 9.35257 -1.71924 3.33174
rclavicle -1.90088e-014 2.8625e-014
rhumerus -35.2647 -4.10572 -79.6228
rradius 54.5671
rwrist 3.22066
rhand -12.0651 16.2319
rfingers 7.12502
rthumb 13.9942 -13.2771
lclavicle -1.90088e-014 2.8625e-014
lhumerus -40.3157 26.425 74.7631
lradius 25.5406
lwrist -2.15371
lhand -23.1007 20.183
lfingers 7.12502
lthumb 3.34589 50.1365
rfemur -15.1024 4.41471 22.2779
rtibia 36.2439
rfoot -4.17449 -2.35766
rtoes -0.946989
lfemur -21.4335 -2.95 -19.1154
ltibia 38.7145
lfoot -5.15227 4.98363
ltoes -11.8062
148
root -0.905032 17.4979 27.0493 -4.82906 0.50706 -0.475728
lowerback 9.95371 -0.127067 2.14679
upperback -0.209413 0.210945 2.16906
thorax -5.81204 0.0734865 1.02933
lowerneck -18.5292 -3.52748 -9.58276
upperneck 18.9098 -3.61076 6.4841
head 9.31128 -1.66904 3.34273
rclavicle -1.24116e-014 3.89618e-014
rhumerus -35.1309 -3.33231 -79.9274
rradius 55.2539
rwrist 3.78612
rhand -12.2337 16.9914
rfingers 7.12502
rthumb 13.8317 -12.5287
lclavicle -1.24116e-014 3.89618e-014
lhumerus -41.4173 27.4637 73.4198
lradius 24.418
lwrist -2.88066
lhand -22.8652 19.1613
lfingers 7.12502
lthumb 3.5733 49.1111
rfemur -14.7917 4.40504 22.1784
rtibia 36.2696
rfoot -4.3679 -2.0783
rtoes -1.26573
lfemur -21.2744 -3.4266 -19.0614
ltibia 37.7305
lfoot -3.77895 4.56776
ltoes -12.762
149
root -0.887426 17.517 27.1778 -4.67384 0.162164 -0.471377
lowerback 9.66323 -0.0851371 2.15365
upperback -0.279165 0.261483 2.21681
thorax -5.72187 0.099093 1.0673
lowerneck -18.0845 -3.48826 -9.67074
upperneck 18.827 -3.53788 6.3321
head 9.19485 -1.6647 3.31432
rclavicle -6.83322e-016 1.11319e-014
rhumerus -35.0982 -2.65607 -80.1228
rradius 56.1021
rwrist 4.20016
rhand -12.8485 17.8233
rfingers 7.12502
rthumb 13.2393 -11.7363
lclavicle -6.83322e-016 1.11319e-014
lhumerus -42.6434 28.1452 72.3219
lradius 23.678
lwrist -3.23891
lhand -22.3881 20.1701
lfingers 7.12502
lthumb 4.03404 50.1117
rfemur -14.5817 4.61112 22.157
rtibia 36.2458
rfoot -4.60915 -1.99871
rtoes -1.04857
lfemur -21.2073 -3.71615 -18.9689
ltibia 36.9428
lfoot -2.05361 3.88856
ltoes -13.948
150
root -0.873943 17.5255 27.3014 -4.55328 -0.122841 -0.633261
lowerback 9.46484 -0.0732958 2.29403
upperback -0.310273 0.28974 2.27611
thorax -5.64251 0.110108 1.04578
lowerneck -18.0448 -3.45792 -9.5671
upperneck 19.0294 -3.48539 6.10862
head 9.24737 -1.65997 3.22897
rclavicle 1.23619e-014 3.18055e-015
rhumerus -35.1067 -2.0049 -80.4408
rradius 57.0208
rwrist 3.81936
rhand -13.3906 18.1497
rfingers 7.12502
rthumb 12.7167 -11.443
lclavicle 1.23619e-014 3.18055e-015
lhumerus -43.7142 28.8404 71.1258
lradius 22.9559
lwrist -3.89205
lhand -21.5971 22.1036
lfingers 7.12502
lthumb 4.79776 52.0293
rfemur -14.2818 4.85693 22.3466
rtibia 36.1912
rfoot -4.99581 -2.01762
rtoes -0.705152
lfemur -21.169 -3.74249 -18.7442
ltibia 36.4095
lfoot -0.0142072 2.90882
ltoes -10.7271
151
root -0.85379 17.5271 27.4177 -4.46889 -0.258497 -0.738654
lowerback 9.36339 -0.141086 2.42479
upperback -0.34955 0.215332 2.34867
thorax -5.62652 0.0707256 1.05857
lowerneck -18.1968 -3.38549 -9.5037
upperneck 19.4206 -3.35847 5.92498
head 9.39586 -1.61857 3.1764
rclavicle 3.13086e-015 -1.74931e-014
rhumerus -35.0229 -1.30917 -80.6856
rradius 57.8622
rwrist 3.17779
rhand -12.9989 17.8838
rfingers 7.12502
rthumb 13.0943 -11.6851
lclavicle 3.13086e-015 -1.74931e-014
lhumerus -44.8212 29.6023 69.9295
lradius 22.1319
lwrist -4.82725
lhand -21.0726 22.8111
lfingers 7.12502
lthumb 5.30424 52.7247
rfemur -13.8418 4.83065 22.4227
rtibia 36.0976
rfoot -5.30373 -1.88954
rtoes -1.15509
lfemur -21.133 -3.58617 -18.6955
ltibia 36.1222
lfoot 1.30853 2.00387
ltoes -6.18218
152
root -0.831615 17.5281 27.5276 -4.26113 -0.363506 -0.960291
lowerback 9.18894 -0.240281 2.66219
upperback -0.393367 0.110653 2.4785
thorax -5.57435 0.0144013 1.07496
lowerneck -18.3892 -3.33342 -9.53049
upperneck 19.7104 -3.23957 5.80227
head 9.52091 -1.57974 3.15756
rclavicle -9.65348e-015 -4.13472e-014
rhumerus -34.7933 -0.927996 -80.7051
rradius 58.8833
rwrist 3.91973
rhand -11.8807 17.401
rfingers 7.12502
rthumb 14.172 -12.0956
lclavicle -9.65348e-015 -4.13472e-014
lhumerus -45.8348 30.3243 68.8653
lradius 21.4123
lwrist -5.70001
lhand -20.7994 22.5432
lfingers 7.12502
lthumb 5.56804 52.45
rfemur -13.5746 4.72162 22.5842
rtibia 36.0437
rfoot -5.6786 -1.74807
rtoes -1.48603
lfemur -21.2112 -3.21526 -18.5593
ltibia 35.9881
lfoot 1.1755 1.26755
ltoes -5.87772
153
root -0.82091 17.5327 27.6382 -3.997 -0.562094 -1.14489
lowerback 8.92091 -0.242417 2.74626
upperback -0.429628 0.110957 2.5716
thorax -5.46129 0.0140813 1.12352
lowerneck -18.2006 -3.3526 -9.60908
upperneck 19.5192 -3.26961 5.8565
head 9.42455 -1.59405 3.18336
rclavicle -1.27595e-014 2.14687e-014
rhumerus -34.7061 -0.361462 -81.0492
rradius 59.6771
rwrist 1.78808
rhand -12.9462 18.3225
rfingers 7.12502
rthumb 13.1451 -11.2431
lclavicle -1.27595e-014 2.14687e-014
lhumerus -46.8021 31.0801 67.6847
lradius 20.78
lwrist -7.0419
lhand -20.3671 22.854
lfingers 7.12502
lthumb 5.98544 52.7495
rfemur -13.4369 4.91623 22.7558
rtibia 36.0208
rfoot -6.16881 -1.70472
rtoes -2.08084
lfemur -21.3081 -2.79356 -18.3852
ltibia 35.9237
lfoot 0.758094 0.950931
ltoes -8.3851
154
root -0.80772 17.5295 27.7565 -3.89582 -0.667188 -0.809547
lowerback 8.84846 -0.218773 2.32966
upperback -0.626792 0.0987261 2.51085
thorax -5.62744 0.0177473 1.29733
lowerneck -17.5692 -3.3392 -9.605
upperneck 19.3688 -3.2856 5.74179
head 9.25677 -1.62139 3.14049
rclavicle 1.47598e-014 -1.19271e-014
rhumerus -35.0941 -0.095996 -81.1795
rradius 60.6262
rwrist 0.891525
rhand -13.2575 18.4317
rfingers 7.12502
rthumb 12.8449 -11.153
lclavicle 1.47598e-014 -1.19271e-014
lhumerus -48.0468 31.1885 66.673
lradius 20.3236
lwrist -8.07218
lhand -19.9519 23.7295
lfingers 7.12502
lthumb 6.38623 53.6133
rfemur -13.0825 4.94173 22.336
rtibia 36.0063
rfoot -6.75731 -1.51934
rtoes -2.70229
lfemur -21.0859 -2.75296 -18.8245
ltibia 35.9219
lfoot 0.524162 1.44077
ltoes -9.294
155
root -0.784606 17.5244 27.868 -3.93479 -0.691266 -0.681
lowerback 8.91014 -0.262552 2.20253
upperback -0.740838 0.0341333 2.52602
thorax -5.78203 -0.0108261 1.39536
lowerneck -17.5271 -3.28167 -9.5137
upperneck 19.5707 -3.19477 5.53892
head 9.30688 -1.59779 3.06945
rclavicle 8.27441e-015 -2.38542e-015
rhumerus -35.3707 -0.0421266 -81.1394
rradius 61.5735
rwrist 0.797067
rhand -13.3702 18.4403
rfingers 7.12502
rthumb 12.7363 -11.1513
lclavicle 8.27441e-015 -2.38542e-015
lhumerus -49.2447 31.5322 65.6274
lradius 19.8139
lwrist -9.41877
lhand -19.6923 24.0045
lfingers 7.12502
lthumb 6.63682 53.8805
rfemur -12.5453 4.74406 22.0876
rtibia 35.9369
rfoot -7.30669 -1.29038
rtoes -2.33979
lfemur -20.6073 -2.94322 -19.1126
ltibia 36.0247
lfoot -0.146355 1.86882
ltoes -9.22934
